{
  "accessors": [
    {
      "bufferView": 2,
      "componentType": 5126,
      "count": 2040,
      "max": [
        0.9652432203292847,
        7.487061977386475,
        0.9652432799339294
      ],
      "min": [
        -0.9652431011199951,
        -3.712878704071045,
        -0.9652432799339294
      ],
      "type": "VEC3"
    },
    {
      "bufferView": 2,
      "byteOffset": 24480,
      "componentType": 5126,
      "count": 2040,
      "max": [
        1.0,
        1.0,
        1.0
      ],
      "min": [
        -1.0,
        -1.0,
        -1.0
      ],
      "type": "VEC3"
    },
    {
      "bufferView": 1,
      "componentType": 5126,
      "count": 2040,
      "max": [
        1.0,
        1.0
      ],
      "min": [
        0.0,
        0.01000000536441803
      ],
      "type": "VEC2"
    },
    {
      "bufferView": 0,
      "componentType": 5125,
      "count": 5652,
      "type": "SCALAR"
    },
    {
      "bufferView": 2,
      "byteOffset": 48960,
      "componentType": 5126,
      "count": 66,
      "max": [
        0.6238203048706055,
        3.275540828704834,
        0.6238203644752502
      ],
      "min": [
        -0.6238201856613159,
        -0.25712060928344727,
        -0.6238201856613159
      ],
      "type": "VEC3"
    },
    {
      "bufferView": 2,
      "byteOffset": 49752,
      "componentType": 5126,
      "count": 66,
      "max": [
        1.0,
        3.648970547942554e-08,
        1.0
      ],
      "min": [
        -1.0,
        -3.1054398164087615e-08,
        -1.0
      ],
      "type": "VEC3"
    },
    {
      "bufferView": 1,
      "byteOffset": 16320,
      "componentType": 5126,
      "count": 66,
      "max": [
        1.0,
        0.8610075116157532
      ],
      "min": [
        0.0,
        0.5
      ],
      "type": "VEC2"
    },
    {
      "bufferView": 0,
      "byteOffset": 22608,
      "componentType": 5125,
      "count": 192,
      "type": "SCALAR"
    },
    {
      "bufferView": 2,
      "byteOffset": 50544,
      "componentType": 5126,
      "count": 274,
      "max": [
        0.9487048387527466,
        1.8950433731079102,
        0.9340286254882813
      ],
      "min": [
        -0.9487048387527466,
        -1.8645743131637573,
        -0.4946674704551697
      ],
      "type": "VEC3"
    },
    {
      "bufferView": 2,
      "byteOffset": 53832,
      "componentType": 5126,
      "count": 274,
      "max": [
        1.0,
        1.0,
        1.0
      ],
      "min": [
        -1.0,
        -1.0,
        -1.0
      ],
      "type": "VEC3"
    },
    {
      "bufferView": 1,
      "byteOffset": 16848,
      "componentType": 5126,
      "count": 274,
      "max": [
        0.75,
        0.875
      ],
      "min": [
        0.375,
        0.3749999701976776
      ],
      "type": "VEC2"
    },
    {
      "bufferView": 0,
      "byteOffset": 23376,
      "componentType": 5125,
      "count": 468,
      "type": "SCALAR"
    },
    {
      "bufferView": 2,
      "byteOffset": 57120,
      "componentType": 5126,
      "count": 2460,
      "max": [
        0.6961468458175659,
        3.595445394515991,
        0.6961469650268555
      ],
      "min": [
        -0.6961470246315002,
        -3.9120948258641874e-07,
        -0.6961469650268555
      ],
      "type": "VEC3"
    },
    {
      "bufferView": 2,
      "byteOffset": 86640,
      "componentType": 5126,
      "count": 2460,
      "max": [
        1.0,
        1.0,
        1.0
      ],
      "min": [
        -1.0,
        -1.0,
        -1.0
      ],
      "type": "VEC3"
    },
    {
      "bufferView": 1,
      "byteOffset": 19040,
      "componentType": 5126,
      "count": 2460,
      "max": [
        1.0,
        1.0
      ],
      "min": [
        0.0,
        0.02039269730448723
      ],
      "type": "VEC2"
    },
    {
      "bufferView": 0,
      "byteOffset": 25248,
      "componentType": 5125,
      "count": 4536,
      "type": "SCALAR"
    },
    {
      "bufferView": 2,
      "byteOffset": 116160,
      "componentType": 5126,
      "count": 234,
      "max": [
        1.0,
        1.0,
        1.7072621583938599
      ],
      "min": [
        -1.0,
        -1.0,
        -1.0
      ],
      "type": "VEC3"
    },
    {
      "bufferView": 2,
      "byteOffset": 118968,
      "componentType": 5126,
      "count": 234,
      "max": [
        1.0,
        1.0,
        1.0
      ],
      "min": [
        -1.0,
        -1.0,
        -1.0
      ],
      "type": "VEC3"
    },
    {
      "bufferView": 1,
      "byteOffset": 38720,
      "componentType": 5126,
      "count": 234,
      "max": [
        1.0,
        1.0
      ],
      "min": [
        0.0,
        0.01000000536441803
      ],
      "type": "VEC2"
    },
    {
      "bufferView": 0,
      "byteOffset": 43392,
      "componentType": 5125,
      "count": 660,
      "type": "SCALAR"
    },
    {
      "bufferView": 2,
      "byteOffset": 121776,
      "componentType": 5126,
      "count": 157,
      "max": [
        1.0,
        1.0,
        0.81015944480896
      ],
      "min": [
        -1.0,
        -1.0,
        -0.5172857046127319
      ],
      "type": "VEC3"
    },
    {
      "bufferView": 2,
      "byteOffset": 123660,
      "componentType": 5126,
      "count": 157,
      "max": [
        1.0,
        1.0,
        0.9748672842979431
      ],
      "min": [
        -1.0,
        -1.0,
        -1.0
      ],
      "type": "VEC3"
    },
    {
      "bufferView": 1,
      "byteOffset": 40592,
      "componentType": 5126,
      "count": 157,
      "max": [
        1.0,
        1.0
      ],
      "min": [
        0.0,
        0.01000000536441803
      ],
      "type": "VEC2"
    },
    {
      "bufferView": 0,
      "byteOffset": 46032,
      "componentType": 5125,
      "count": 468,
      "type": "SCALAR"
    },
    {
      "bufferView": 2,
      "byteOffset": 125544,
      "componentType": 5126,
      "count": 1021,
      "max": [
        0.8448613882064819,
        1.4305115314527939e-07,
        0.8620615601539612
      ],
      "min": [
        -0.8448613882064819,
        -1.222254991531372,
        -0.8353763818740845
      ],
      "type": "VEC3"
    },
    {
      "bufferView": 2,
      "byteOffset": 137796,
      "componentType": 5126,
      "count": 1021,
      "max": [
        1.0,
        1.0,
        1.0
      ],
      "min": [
        -1.0,
        -1.0,
        -1.0
      ],
      "type": "VEC3"
    },
    {
      "bufferView": 1,
      "byteOffset": 41848,
      "componentType": 5126,
      "count": 1021,
      "max": [
        1.0,
        1.0
      ],
      "min": [
        0.0,
        0.0
      ],
      "type": "VEC2"
    },
    {
      "bufferView": 0,
      "byteOffset": 47904,
      "componentType": 5125,
      "count": 2610,
      "type": "SCALAR"
    },
    {
      "bufferView": 2,
      "byteOffset": 150048,
      "componentType": 5126,
      "count": 227,
      "max": [
        0.9746266007423401,
        0.9746266007423401,
        1.0000001192092896
      ],
      "min": [
        -0.9746264815330505,
        -0.9746266007423401,
        -0.2048412263393402
      ],
      "type": "VEC3"
    },
    {
      "bufferView": 2,
      "byteOffset": 152772,
      "componentType": 5126,
      "count": 227,
      "max": [
        0.9999522566795349,
        0.9999522566795349,
        0.9999420642852783
      ],
      "min": [
        -0.9999522566795349,
        -0.9999522566795349,
        -1.0
      ],
      "type": "VEC3"
    },
    {
      "bufferView": 1,
      "byteOffset": 50016,
      "componentType": 5126,
      "count": 227,
      "max": [
        1.0000001192092896,
        1.0000001192092896
      ],
      "min": [
        0.0,
        0.01000000536441803
      ],
      "type": "VEC2"
    },
    {
      "bufferView": 0,
      "byteOffset": 58344,
      "componentType": 5125,
      "count": 672,
      "type": "SCALAR"
    },
    {
      "bufferView": 2,
      "byteOffset": 155496,
      "componentType": 5126,
      "count": 209,
      "max": [
        0.7498395442962646,
        0.7498392462730408,
        1.211169958114624
      ],
      "min": [
        -0.7498395442962646,
        -0.7498399019241333,
        1.0000001192092896
      ],
      "type": "VEC3"
    },
    {
      "bufferView": 2,
      "byteOffset": 158004,
      "componentType": 5126,
      "count": 209,
      "max": [
        0.9997581243515015,
        0.9997581243515015,
        1.0
      ],
      "min": [
        -0.9997581243515015,
        -0.9997581839561462,
        0.021992387250065804
      ],
      "type": "VEC3"
    },
    {
      "bufferView": 1,
      "byteOffset": 51832,
      "componentType": 5126,
      "count": 209,
      "max": [
        0.4542958438396454,
        0.45429572463035583
      ],
      "min": [
        0.04570422321557999,
        0.04570423439145088
      ],
      "type": "VEC2"
    },
    {
      "bufferView": 0,
      "byteOffset": 61032,
      "componentType": 5125,
      "count": 768,
      "type": "SCALAR"
    },
    {
      "bufferView": 2,
      "byteOffset": 160512,
      "componentType": 5126,
      "count": 393,
      "max": [
        1.1360934972763062,
        1.1360934972763062,
        1.0000001192092896
      ],
      "min": [
        -1.1360934972763062,
        -1.1360934972763062,
        -0.27656596899032593
      ],
      "type": "VEC3"
    },
    {
      "bufferView": 2,
      "byteOffset": 165228,
      "componentType": 5126,
      "count": 393,
      "max": [
        1.0,
        1.0,
        1.0
      ],
      "min": [
        -1.0,
        -1.0,
        -1.0
      ],
      "type": "VEC3"
    },
    {
      "bufferView": 1,
      "byteOffset": 53504,
      "componentType": 5126,
      "count": 393,
      "max": [
        1.036482334136963,
        1.000000238418579
      ],
      "min": [
        0.0,
        0.01000000536441803
      ],
      "type": "VEC2"
    },
    {
      "bufferView": 0,
      "byteOffset": 64104,
      "componentType": 5125,
      "count": 834,
      "type": "SCALAR"
    },
    {
      "bufferView": 2,
      "byteOffset": 169944,
      "componentType": 5126,
      "count": 864,
      "max": [
        0.8980885744094849,
        0.7653000950813293,
        0.5118981599807739
      ],
      "min": [
        -1.008649230003357,
        -0.7653030157089233,
        -1.4926015138626099
      ],
      "type": "VEC3"
    },
    {
      "bufferView": 2,
      "byteOffset": 180312,
      "componentType": 5126,
      "count": 864,
      "max": [
        0.9998486638069153,
        1.0,
        0.9999553561210632
      ],
      "min": [
        -0.999706506729126,
        -1.0,
        -0.9999516606330872
      ],
      "type": "VEC3"
    },
    {
      "bufferView": 1,
      "byteOffset": 56648,
      "componentType": 5126,
      "count": 864,
      "max": [
        0.75,
        0.875
      ],
      "min": [
        0.25,
        0.375
      ],
      "type": "VEC2"
    },
    {
      "bufferView": 0,
      "byteOffset": 67440,
      "componentType": 5125,
      "count": 2052,
      "type": "SCALAR"
    },
    {
      "bufferView": 2,
      "byteOffset": 190680,
      "componentType": 5126,
      "count": 295,
      "max": [
        0.933262288570404,
        0.9332610368728638,
        0.9750422239303589
      ],
      "min": [
        -0.9332591891288757,
        -0.9332605600357056,
        -1.153486967086792
      ],
      "type": "VEC3"
    },
    {
      "bufferView": 2,
      "byteOffset": 194220,
      "componentType": 5126,
      "count": 295,
      "max": [
        0.999823272228241,
        0.9998233318328857,
        1.0
      ],
      "min": [
        -0.9998233318328857,
        -0.9998233318328857,
        -0.9999837279319763
      ],
      "type": "VEC3"
    },
    {
      "bufferView": 1,
      "byteOffset": 63560,
      "componentType": 5126,
      "count": 295,
      "max": [
        1.0,
        1.0
      ],
      "min": [
        0.0,
        0.01000000536441803
      ],
      "type": "VEC2"
    },
    {
      "bufferView": 0,
      "byteOffset": 75648,
      "componentType": 5125,
      "count": 1140,
      "type": "SCALAR"
    },
    {
      "bufferView": 2,
      "byteOffset": 197760,
      "componentType": 5126,
      "count": 394,
      "max": [
        1.2121219635009766,
        1.212119460105896,
        0.9654616117477417
      ],
      "min": [
        -1.2121168375015259,
        -1.212119460105896,
        -1.1588983535766602
      ],
      "type": "VEC3"
    },
    {
      "bufferView": 2,
      "byteOffset": 202488,
      "componentType": 5126,
      "count": 394,
      "max": [
        0.9996910691261292,
        0.9996910095214844,
        0.9999837279319763
      ],
      "min": [
        -0.9996910095214844,
        -0.9996910691261292,
        -0.9996191263198853
      ],
      "type": "VEC3"
    },
    {
      "bufferView": 1,
      "byteOffset": 65920,
      "componentType": 5126,
      "count": 394,
      "max": [
        1.0,
        1.0
      ],
      "min": [
        0.0,
        0.01000000536441803
      ],
      "type": "VEC2"
    },
    {
      "bufferView": 0,
      "byteOffset": 80208,
      "componentType": 5125,
      "count": 1524,
      "type": "SCALAR"
    },
    {
      "bufferView": 2,
      "byteOffset": 207216,
      "componentType": 5126,
      "count": 217,
      "max": [
        1.129480004310608,
        1.129480004310608,
        2.6404755115509033
      ],
      "min": [
        -1.129480004310608,
        -1.129480004310608,
        -1.0
      ],
      "type": "VEC3"
    },
    {
      "bufferView": 2,
      "byteOffset": 209820,
      "componentType": 5126,
      "count": 217,
      "max": [
        0.9807853102684021,
        0.9807853698730469,
        1.0
      ],
      "min": [
        -0.9807853102684021,
        -0.9807853102684021,
        -1.0
      ],
      "type": "VEC3"
    },
    {
      "bufferView": 1,
      "byteOffset": 69072,
      "componentType": 5126,
      "count": 217,
      "max": [
        0.985388457775116,
        1.0000001192092896
      ],
      "min": [
        0.03125,
        0.014611542224884033
      ],
      "type": "VEC2"
    },
    {
      "bufferView": 0,
      "byteOffset": 86304,
      "componentType": 5125,
      "count": 810,
      "type": "SCALAR"
    },
    {
      "bufferView": 2,
      "byteOffset": 212424,
      "componentType": 5126,
      "count": 434,
      "max": [
        1.129480004310608,
        1.129480004310608,
        2.6404755115509033
      ],
      "min": [
        -1.1294811964035034,
        -1.129480004310608,
        -63.30973815917969
      ],
      "type": "VEC3"
    },
    {
      "bufferView": 2,
      "byteOffset": 217632,
      "componentType": 5126,
      "count": 434,
      "max": [
        0.9807853102684021,
        0.9807854890823364,
        1.0
      ],
      "min": [
        -0.9807853102684021,
        -0.9807854890823364,
        -1.0
      ],
      "type": "VEC3"
    },
    {
      "bufferView": 1,
      "byteOffset": 70808,
      "componentType": 5126,
      "count": 434,
      "max": [
        0.985388457775116,
        1.0000001192092896
      ],
      "min": [
        0.03125,
        0.014611542224884033
      ],
      "type": "VEC2"
    },
    {
      "bufferView": 0,
      "byteOffset": 89544,
      "componentType": 5125,
      "count": 1620,
      "type": "SCALAR"
    },
    {
      "bufferView": 2,
      "byteOffset": 222840,
      "componentType": 5126,
      "count": 688,
      "max": [
        8.768522262573242,
        1.129480004310608,
        2.6404755115509033
      ],
      "min": [
        -1.129480004310608,
        -1.129480004310608,
        -22.66107177734375
      ],
      "type": "VEC3"
    },
    {
      "bufferView": 2,
      "byteOffset": 231096,
      "componentType": 5126,
      "count": 688,
      "max": [
        0.9988101124763489,
        0.9990500211715698,
        1.0
      ],
      "min": [
        -0.9923645257949829,
        -0.9990500211715698,
        -1.0
      ],
      "type": "VEC3"
    },
    {
      "bufferView": 1,
      "byteOffset": 74280,
      "componentType": 5126,
      "count": 688,
      "max": [
        0.985388457775116,
        1.0000001192092896
      ],
      "min": [
        0.03125,
        0.014611542224884033
      ],
      "type": "VEC2"
    },
    {
      "bufferView": 0,
      "byteOffset": 96024,
      "componentType": 5125,
      "count": 2196,
      "type": "SCALAR"
    },
    {
      "bufferView": 2,
      "byteOffset": 239352,
      "componentType": 5126,
      "count": 5496,
      "max": [
        0.934242844581604,
        1.8492735624313354,
        0.11613640189170837
      ],
      "min": [
        -0.9341794848442078,
        -1.9033887386322021,
        -1.7521684169769287
      ],
      "type": "VEC3"
    },
    {
      "bufferView": 2,
      "byteOffset": 305304,
      "componentType": 5126,
      "count": 5496,
      "max": [
        1.0,
        1.0,
        1.0
      ],
      "min": [
        -1.0,
        -1.0,
        -1.0
      ],
      "type": "VEC3"
    },
    {
      "bufferView": 1,
      "byteOffset": 79784,
      "componentType": 5126,
      "count": 5496,
      "max": [
        0.985388457775116,
        1.0000001192092896
      ],
      "min": [
        0.03125,
        0.0
      ],
      "type": "VEC2"
    },
    {
      "bufferView": 0,
      "byteOffset": 104808,
      "componentType": 5125,
      "count": 19872,
      "type": "SCALAR"
    },
    {
      "bufferView": 2,
      "byteOffset": 371256,
      "componentType": 5126,
      "count": 136,
      "max": [
        0.5940001010894775,
        2.8749403953552246,
        0.7100266218185425
      ],
      "min": [
        -0.5940001010894775,
        1.6869401931762695,
        -0.01595473289489746
      ],
      "type": "VEC3"
    },
    {
      "bufferView": 2,
      "byteOffset": 372888,
      "componentType": 5126,
      "count": 136,
      "max": [
        1.0,
        1.0,
        1.0
      ],
      "min": [
        -1.0,
        -1.0,
        -1.0
      ],
      "type": "VEC3"
    },
    {
      "bufferView": 1,
      "byteOffset": 123752,
      "componentType": 5126,
      "count": 136,
      "max": [
        1.0,
        1.000000238418579
      ],
      "min": [
        -0.10288170725107193,
        0.5
      ],
      "type": "VEC2"
    },
    {
      "bufferView": 0,
      "byteOffset": 184296,
      "componentType": 5125,
      "count": 396,
      "type": "SCALAR"
    },
    {
      "bufferView": 3,
      "componentType": 5126,
      "count": 36,
      "max": [
        4.958333492279053
      ],
      "min": [
        0.0
      ],
      "type": "SCALAR"
    },
    {
      "bufferView": 4,
      "componentType": 5126,
      "count": 36,
      "max": [
        186.81675720214844,
        19.06670379638672,
        434.7322998046875
      ],
      "min": [
        186.81675720214844,
        19.06670379638672,
        386.43475341796875
      ],
      "type": "VEC3"
    },
    {
      "bufferView": 3,
      "byteOffset": 144,
      "componentType": 5126,
      "count": 36,
      "max": [
        4.958333492279053
      ],
      "min": [
        0.0
      ],
      "type": "SCALAR"
    },
    {
      "bufferView": 4,
      "byteOffset": 432,
      "componentType": 5126,
      "count": 36,
      "max": [
        -1.0415164232254028,
        -1.0415164232254028,
        -2.9324371553229867e-06
      ],
      "min": [
        -1.0415164232254028,
        -1.0415164232254028,
        -49.1981315612793
      ],
      "type": "VEC3"
    },
    {
      "bufferView": 3,
      "byteOffset": 288,
      "componentType": 5126,
      "count": 13,
      "max": [
        4.958333492279053
      ],
      "min": [
        0.0
      ],
      "type": "SCALAR"
    },
    {
      "bufferView": 5,
      "componentType": 5126,
      "count": 13,
      "max": [
        -1.3382753100062164e-24,
        -2.1855694143368964e-08,
        1.0,
        6.123234262925839e-17
      ],
      "min": [
        -1.3382753100062164e-24,
        -2.1855694143368964e-08,
        1.0,
        6.123234262925839e-17
      ],
      "type": "VEC4"
    }
  ],
  "animations": [
    {
      "channels": [
        {
          "sampler": 0,
          "target": {
            "node": 24,
            "path": "translation"
          }
        },
        {
          "sampler": 1,
          "target": {
            "node": 24,
            "path": "scale"
          }
        },
        {
          "sampler": 2,
          "target": {
            "node": 24,
            "path": "rotation"
          }
        }
      ],
      "name": "Lightsaber Action",
      "samplers": [
        {
          "input": 72,
          "interpolation": "LINEAR",
          "output": 73
        },
        {
          "input": 74,
          "interpolation": "LINEAR",
          "output": 75
        },
        {
          "input": 76,
          "interpolation": "LINEAR",
          "output": 77
        }
      ]
    }
  ],
  "asset": {
    "extras": {
      "author": "ARKON MAREK (https://sketchfab.com/ARKON-83)",
      "license": "CC-BY-4.0 (http://creativecommons.org/licenses/by/4.0/)",
      "source": "https://sketchfab.com/3d-models/star-wars-mara-jades-lightsaber-a07c06d686a8459384e3bd7fc490cf76",
      "title": "-Star Wars- Mara Jade's Lightsaber"
    },
    "generator": "Sketchfab-15.30.0",
    "version": "2.0"
  },
  "bufferViews": [
    {
      "buffer": 0,
      "byteLength": 185880,
      "name": "floatBufferViews",
      "target": 34963
    },
    {
      "buffer": 0,
      "byteLength": 124840,
      "byteOffset": 185880,
      "byteStride": 8,
      "name": "floatBufferViews",
      "target": 34962
    },
    {
      "buffer": 0,
      "byteLength": 374520,
      "byteOffset": 310720,
      "byteStride": 12,
      "name": "floatBufferViews",
      "target": 34962
    },
    {
      "buffer": 0,
      "byteLength": 340,
      "byteOffset": 685240,
      "name": "floatBufferViews"
    },
    {
      "buffer": 0,
      "byteLength": 864,
      "byteOffset": 685580,
      "byteStride": 12,
      "name": "floatBufferViews"
    },
    {
      "buffer": 0,
      "byteLength": 208,
      "byteOffset": 686444,
      "byteStride": 16,
      "name": "floatBufferViews"
    }
  ],
  "buffers": [
    {
      "byteLength": 686652,
      "uri": "scene.bin"
    }
  ],
  "extensionsUsed": [
    "KHR_materials_emissive_strength"
  ],
  "materials": [
    {
      "doubleSided": true,
      "name": "Chrome_Metal",
      "pbrMetallicRoughness": {
        "metallicFactor": 0.8396216064658483,
        "roughnessFactor": 0.0
      }
    },
    {
      "doubleSided": true,
      "name": "Matt_Black",
      "pbrMetallicRoughness": {
        "baseColorFactor": [
          0.0,
          0.0,
          0.0,
          1.0
        ],
        "metallicFactor": 0.06552400921602808,
        "roughnessFactor": 0.8396216064658483
      }
    },
    {
      "doubleSided": true,
      "name": "Copper",
      "pbrMetallicRoughness": {
        "baseColorFactor": [
          0.735654,
          0.486586,
          0.19165,
          1.0
        ],
        "roughnessFactor": 0.0
      }
    },
    {
      "doubleSided": true,
      "emissiveFactor": [
        0.9309814245047139,
        0.2665404414723022,
        0.8761428720239923
      ],
      "extensions": {
        "KHR_materials_emissive_strength": {
          "emissiveStrength": 8.883836598359157
        }
      },
      "name": "Lightsaber",
      "pbrMetallicRoughness": {
        "baseColorFactor": [
          0.5190816593712904,
          0.024189036068508054,
          0.460537924265348,
          1.0
        ],
        "metallicFactor": 0.0
      }
    },
    {
      "alphaMode": "BLEND",
      "emissiveFactor": [
        0.512241594656483,
        0.013121476854040477,
        0.2234540573387017
      ],
      "extensions": {
        "KHR_materials_emissive_strength": {
          "emissiveStrength": 8.21335836452073
        }
      },
      "name": "Lightsaber_Glow",
      "pbrMetallicRoughness": {
        "baseColorFactor": [
          0.22653400390734113,
          0.01756291396686552,
          0.14073398131117665,
          0.8152405797808145
        ],
        "metallicFactor": 0.0
      }
    }
  ],
  "meshes": [
    {
      "name": "Cube_Chrome Metal_0",
      "primitives": [
        {
          "attributes": {
            "NORMAL": 1,
            "POSITION": 0,
            "TEXCOORD_0": 2
          },
          "indices": 3,
          "material": 0,
          "mode": 4
        }
      ]
    },
    {
      "name": "Cube_Matt Black_0",
      "primitives": [
        {
          "attributes": {
            "NORMAL": 5,
            "POSITION": 4,
            "TEXCOORD_0": 6
          },
          "indices": 7,
          "material": 1,
          "mode": 4
        }
      ]
    },
    {
      "name": "Cube.001_Chrome Metal_0",
      "primitives": [
        {
          "attributes": {
            "NORMAL": 9,
            "POSITION": 8,
            "TEXCOORD_0": 10
          },
          "indices": 11,
          "material": 0,
          "mode": 4
        }
      ]
    },
    {
      "name": "Cylinder_Chrome Metal_0",
      "primitives": [
        {
          "attributes": {
            "NORMAL": 13,
            "POSITION": 12,
            "TEXCOORD_0": 14
          },
          "indices": 15,
          "material": 0,
          "mode": 4
        }
      ]
    },
    {
      "name": "Cylinder.001_Chrome Metal_0",
      "primitives": [
        {
          "attributes": {
            "NORMAL": 17,
            "POSITION": 16,
            "TEXCOORD_0": 18
          },
          "indices": 19,
          "material": 0,
          "mode": 4
        }
      ]
    },
    {
      "name": "Cylinder.002_Chrome Metal_0",
      "primitives": [
        {
          "attributes": {
            "NORMAL": 21,
            "POSITION": 20,
            "TEXCOORD_0": 22
          },
          "indices": 23,
          "material": 0,
          "mode": 4
        }
      ]
    },
    {
      "name": "Cylinder.003_Chrome Metal_0",
      "primitives": [
        {
          "attributes": {
            "NORMAL": 25,
            "POSITION": 24,
            "TEXCOORD_0": 26
          },
          "indices": 27,
          "material": 0,
          "mode": 4
        }
      ]
    },
    {
      "name": "Cylinder.004_Chrome Metal_0",
      "primitives": [
        {
          "attributes": {
            "NORMAL": 29,
            "POSITION": 28,
            "TEXCOORD_0": 30
          },
          "indices": 31,
          "material": 0,
          "mode": 4
        }
      ]
    },
    {
      "name": "Cylinder.004_Matt Black_0",
      "primitives": [
        {
          "attributes": {
            "NORMAL": 33,
            "POSITION": 32,
            "TEXCOORD_0": 34
          },
          "indices": 35,
          "material": 1,
          "mode": 4
        }
      ]
    },
    {
      "name": "Cylinder.005_Copper_0",
      "primitives": [
        {
          "attributes": {
            "NORMAL": 37,
            "POSITION": 36,
            "TEXCOORD_0": 38
          },
          "indices": 39,
          "material": 2,
          "mode": 4
        }
      ]
    },
    {
      "name": "Cube.004_Matt Black_0",
      "primitives": [
        {
          "attributes": {
            "NORMAL": 41,
            "POSITION": 40,
            "TEXCOORD_0": 42
          },
          "indices": 43,
          "material": 1,
          "mode": 4
        }
      ]
    },
    {
      "name": "Cylinder.006_Lightsaber_0",
      "primitives": [
        {
          "attributes": {
            "NORMAL": 45,
            "POSITION": 44,
            "TEXCOORD_0": 46
          },
          "indices": 47,
          "material": 3,
          "mode": 4
        }
      ]
    },
    {
      "name": "Cylinder.007_Lightsaber Glow_0",
      "primitives": [
        {
          "attributes": {
            "NORMAL": 49,
            "POSITION": 48,
            "TEXCOORD_0": 50
          },
          "indices": 51,
          "material": 4,
          "mode": 4
        }
      ]
    },
    {
      "name": "Cylinder.009_Chrome Metal_0",
      "primitives": [
        {
          "attributes": {
            "NORMAL": 53,
            "POSITION": 52,
            "TEXCOORD_0": 54
          },
          "indices": 55,
          "material": 0,
          "mode": 4
        }
      ]
    },
    {
      "name": "Cylinder.008_Chrome Metal_0",
      "primitives": [
        {
          "attributes": {
            "NORMAL": 57,
            "POSITION": 56,
            "TEXCOORD_0": 58
          },
          "indices": 59,
          "material": 0,
          "mode": 4
        }
      ]
    },
    {
      "name": "Cylinder.011_Chrome Metal_0",
      "primitives": [
        {
          "attributes": {
            "NORMAL": 61,
            "POSITION": 60,
            "TEXCOORD_0": 62
          },
          "indices": 63,
          "material": 0,
          "mode": 4
        }
      ]
    },
    {
      "name": "Cube.006_Chrome Metal_0",
      "primitives": [
        {
          "attributes": {
            "NORMAL": 65,
            "POSITION": 64,
            "TEXCOORD_0": 66
          },
          "indices": 67,
          "material": 0,
          "mode": 4
        }
      ]
    },
    {
      "name": "Cylinder.012_Chrome Metal_0",
      "primitives": [
        {
          "attributes": {
            "NORMAL": 69,
            "POSITION": 68,
            "TEXCOORD_0": 70
          },
          "indices": 71,
          "material": 0,
          "mode": 4
        }
      ]
    }
  ],
  "nodes": [
    {
      "children": [
        1
      ],
      "matrix": [
        1.0,
        0.0,
        0.0,
        0.0,
        0.0,
        2.220446049250313e-16,
        -1.0,
        0.0,
        0.0,
        1.0,
        2.220446049250313e-16,
        0.0,
        0.0,
        0.0,
        0.0,
        1.0
      ],
      "name": "Sketchfab_model"
    },
    {
      "children": [
        2
      ],
      "matrix": [
        0.009999999776482582,
        0.0,
        0.0,
        0.0,
        0.0,
        0.0,
        0.009999999776482582,
        0.0,
        0.0,
        -0.009999999776482582,
        0.0,
        0.0,
        0.0,
        0.0,
        0.0,
        1.0
      ],
      "name": "676ee090e1c14ff9876b2646b4fb44a4.fbx"
    },
    {
      "children": [
        3
      ],
      "name": "Object_2"
    },
    {
      "children": [
        4,
        7,
        9,
        11,
        13,
        15,
        17,
        20,
        22,
        24,
        28,
        30,
        32,
        34,
        36
      ],
      "name": "RootNode"
    },
    {
      "children": [
        5,
        6
      ],
      "name": "Cube",
      "rotation": [
        -0.7071068286895752,
        0.0,
        0.0,
        0.7071067094802856
      ],
      "scale": [
        2.582383632659912,
        2.582383632659912,
        2.582383632659912
      ],
      "translation": [
        186.81675720214844,
        19.06669807434082,
        377.7113037109375
      ]
    },
    {
      "mesh": 0,
      "name": "Cube_Chrome Metal_0"
    },
    {
      "mesh": 1,
      "name": "Cube_Matt Black_0"
    },
    {
      "children": [
        8
      ],
      "name": "Cube.001",
      "rotation": [
        -0.7071068286895752,
        0.0,
        0.0,
        0.7071067094802856
      ],
      "scale": [
        0.7747150659561157,
        0.7747150659561157,
        0.7747150659561157
      ],
      "translation": [
        186.85215759277344,
        21.365859985351563,
        379.9698791503906
      ]
    },
    {
      "mesh": 2,
      "name": "Cube.001_Chrome Metal_0"
    },
    {
      "children": [
        10
      ],
      "name": "Cylinder",
      "rotation": [
        -0.7071068286895752,
        0.0,
        0.0,
        0.7071067094802856
      ],
      "scale": [
        2.582383632659912,
        2.582383632659912,
        2.582383632659912
      ],
      "translation": [
        186.81675720214844,
        19.06669807434082,
        378.3752746582031
      ]
    },
    {
      "mesh": 3,
      "name": "Cylinder_Chrome Metal_0"
    },
    {
      "children": [
        12
      ],
      "name": "Cylinder.001",
      "rotation": [
        -0.7071068286895752,
        0.0,
        0.0,
        0.7071067094802856
      ],
      "scale": [
        0.3449857831001282,
        0.3449857831001282,
        0.2582383453845978
      ],
      "translation": [
        186.85215759277344,
        22.1701717376709,
        379.0631408691406
      ]
    },
    {
      "mesh": 4,
      "name": "Cylinder.001_Chrome Metal_0"
    },
    {
      "children": [
        14
      ],
      "name": "Cylinder.002",
      "rotation": [
        -0.7071068286895752,
        0.0,
        0.0,
        0.7071067094802856
      ],
      "scale": [
        0.4834222197532654,
        0.4834222197532654,
        0.4834222197532654
      ],
      "translation": [
        186.85215759277344,
        22.1701717376709,
        380.6833190917969
      ]
    },
    {
      "mesh": 5,
      "name": "Cylinder.002_Chrome Metal_0"
    },
    {
      "children": [
        16
      ],
      "name": "Cylinder.003",
      "rotation": [
        -0.7071068286895752,
        0.0,
        0.0,
        0.7071067094802856
      ],
      "scale": [
        2.582383632659912,
        2.582383632659912,
        2.582383632659912
      ],
      "translation": [
        186.81675720214844,
        19.06669807434082,
        378.3752746582031
      ]
    },
    {
      "mesh": 6,
      "name": "Cylinder.003_Chrome Metal_0"
    },
    {
      "children": [
        18,
        19
      ],
      "name": "Cylinder.004",
      "rotation": [
        0.5000000596046448,
        -0.5000000596046448,
        0.4999999701976776,
        -0.4999999403953552
      ],
      "scale": [
        0.8521867990493774,
        0.8521867990493774,
        0.8521867990493774
      ],
      "translation": [
        188.7801055908203,
        19.06669807434082,
        384.5001525878906
      ]
    },
    {
      "mesh": 7,
      "name": "Cylinder.004_Chrome Metal_0"
    },
    {
      "mesh": 8,
      "name": "Cylinder.004_Matt Black_0"
    },
    {
      "children": [
        21
      ],
      "name": "Cylinder.005",
      "rotation": [
        0.5000000596046448,
        -0.5000000596046448,
        0.4999999701976776,
        -0.4999999403953552
      ],
      "scale": [
        0.6817492842674255,
        0.6817492842674255,
        0.6817492842674255
      ],
      "translation": [
        188.7801055908203,
        19.06669807434082,
        360.3432312011719
      ]
    },
    {
      "mesh": 9,
      "name": "Cylinder.005_Copper_0"
    },
    {
      "children": [
        23
      ],
      "name": "Cube.004",
      "rotation": [
        -0.7055928111076355,
        0.04624699801206589,
        -0.04624699801206589,
        0.7055928111076355
      ],
      "scale": [
        2.582383871078491,
        2.582383632659912,
        2.582383871078491
      ],
      "translation": [
        186.92710876464844,
        20.32802963256836,
        383.6560363769531
      ]
    },
    {
      "mesh": 10,
      "name": "Cube.004_Matt Black_0"
    },
    {
      "children": [
        25,
        26
      ],
      "name": "Cylinder.006",
      "rotation": [
        9.553427325823525e-16,
        -2.1855694143368964e-08,
        1.0,
        -4.371138828673793e-08
      ],
      "scale": [
        -1.0415164232254028,
        -1.0415164232254028,
        -49.1981315612793
      ],
      "translation": [
        186.81675720214844,
        19.06670379638672,
        434.7322998046875
      ]
    },
    {
      "mesh": 11,
      "name": "Cylinder.006_Lightsaber_0"
    },
    {
      "children": [
        27
      ],
      "name": "Cylinder.007",
      "rotation": [
        5.68295410730002e-14,
        -6.766065402780437e-33,
        6.617445689285127e-24,
        1.0
      ],
      "scale": [
        0.9999999403953552,
        0.9999999403953552,
        1.0
      ],
      "translation": [
        -1.52587890625e-05,
        -8.282113412860781e-07,
        1.7763568394002505e-15
      ]
    },
    {
      "mesh": 12,
      "name": "Cylinder.007_Lightsaber Glow_0"
    },
    {
      "children": [
        29
      ],
      "name": "Cylinder.009",
      "rotation": [
        0.5000000596046448,
        -0.5000000596046448,
        0.4999999701976776,
        -0.4999999403953552
      ],
      "scale": [
        0.2530735731124878,
        0.2530735731124878,
        0.07148605585098267
      ],
      "translation": [
        189.3972930908203,
        19.06669807434082,
        382.5474548339844
      ]
    },
    {
      "mesh": 13,
      "name": "Cylinder.009_Chrome Metal_0"
    },
    {
      "children": [
        31
      ],
      "name": "Cylinder.008",
      "rotation": [
        0.5000000596046448,
        -0.5000000596046448,
        0.4999999701976776,
        -0.4999999403953552
      ],
      "scale": [
        0.2530735731124878,
        0.2530735731124878,
        0.07148605585098267
      ],
      "translation": [
        188.98526000976563,
        19.06669807434082,
        386.2547607421875
      ]
    },
    {
      "mesh": 14,
      "name": "Cylinder.008_Chrome Metal_0"
    },
    {
      "children": [
        33
      ],
      "name": "Cylinder.011",
      "rotation": [
        -0.2015685737133026,
        0.6777684688568115,
        -0.6777684688568115,
        0.2015685737133026
      ],
      "scale": [
        0.2530735433101654,
        0.2530735731124878,
        0.07148605585098267
      ],
      "translation": [
        188.01528930664063,
        17.273000717163086,
        379.13970947265625
      ]
    },
    {
      "mesh": 15,
      "name": "Cylinder.011_Chrome Metal_0"
    },
    {
      "children": [
        35
      ],
      "name": "Cube.006",
      "rotation": [
        -0.6999920010566711,
        0.10005553811788559,
        -0.10005750507116318,
        0.6999918222427368
      ],
      "scale": [
        2.582383871078491,
        2.5823841094970703,
        2.5823841094970703
      ],
      "translation": [
        187.3996124267578,
        21.001150131225586,
        364.22314453125
      ]
    },
    {
      "mesh": 16,
      "name": "Cube.006_Chrome Metal_0"
    },
    {
      "children": [
        37
      ],
      "name": "Cylinder.012",
      "rotation": [
        0.5000000596046448,
        -0.5000000596046448,
        0.4999999701976776,
        -0.4999999403953552
      ],
      "scale": [
        0.8521867990493774,
        0.8521867990493774,
        0.8521867990493774
      ],
      "translation": [
        188.7801055908203,
        19.06669807434082,
        384.5001525878906
      ]
    },
    {
      "mesh": 17,
      "name": "Cylinder.012_Chrome Metal_0"
    }
  ],
  "scene": 0,
  "scenes": [
    {
      "name": "Sketchfab_Scene",
      "nodes": [
        0
      ]
    }
  ]
}
